<svg width="83" height="30" viewBox="0 0 83 30" fill="none" xmlns="http://www.w3.org/2000/svg">
<path d="M8.16979 16.0167C7.35625 15.5 6.41667 15.2359 5.33958 15.2359C4.28542 15.2359 3.34584 15.5 2.54375 16.0167C1.73021 16.5333 1.11146 17.2796 0.664582 18.2326C0.217707 19.197 0 20.3107 0 21.5737V23.0548C0 24.3178 0.217704 25.4315 0.676038 26.3959C1.12291 27.3604 1.75312 28.0952 2.56666 28.6119C3.38021 29.1285 4.30833 29.3926 5.37396 29.3926C6.45104 29.3926 7.39063 29.1285 8.19271 28.6119C8.9948 28.0952 9.625 27.3489 10.0604 26.3959C10.4958 25.443 10.7135 24.3293 10.7135 23.0548V21.5737C10.7135 20.2993 10.4958 19.1856 10.049 18.2326C9.60209 17.2682 8.98334 16.5333 8.16979 16.0167ZM9.55625 23.0433C9.55625 24.1341 9.39584 25.0756 9.06354 25.8793C8.73125 26.683 8.26146 27.2915 7.63125 27.7163C7.00104 28.1411 6.24479 28.3593 5.3625 28.3593C4.50313 28.3593 3.75833 28.1411 3.12813 27.7163C2.49792 27.28 2.00521 26.6715 1.67291 25.8678C1.32916 25.0641 1.15729 24.1226 1.15729 23.0433V21.5507C1.15729 20.4715 1.32917 19.53 1.66146 18.7378C1.99375 17.9341 2.48646 17.3256 3.11667 16.9007C3.74688 16.4759 4.49167 16.2578 5.35105 16.2578C6.22188 16.2578 6.97812 16.4759 7.60833 16.9007C8.23854 17.3256 8.71979 17.9456 9.06354 18.7378C9.39584 19.53 9.56771 20.4715 9.56771 21.5622V23.0433H9.55625Z" fill="#3A3F83"/>
<path d="M24.8188 22.4233C25.2542 22.0674 25.5865 21.6311 25.8157 21.1259C26.0563 20.6207 26.1709 20.0696 26.1709 19.4726C26.1709 18.6115 25.9875 17.8767 25.6094 17.2681C25.2313 16.6596 24.6927 16.2004 23.9938 15.8904C23.2948 15.5804 22.4698 15.4196 21.5073 15.4196H17.0386V29.1974H18.1959V23.4567H22.1948L25.5063 29.1974H26.7552V29.0711L23.3292 23.2041C23.8907 23.0433 24.3948 22.7792 24.8188 22.4233ZM21.7709 22.4692H18.2073V16.407H21.5073C22.2521 16.407 22.8938 16.5333 23.4094 16.7744C23.9365 17.0155 24.3261 17.3715 24.6011 17.8307C24.8761 18.29 25.0021 18.8411 25.0021 19.4726C25.0021 20.0122 24.8761 20.5059 24.624 20.9537C24.3719 21.413 24.0052 21.7689 23.524 22.0444C23.0542 22.3315 22.4584 22.4692 21.7709 22.4692Z" fill="#3A3F83"/>
<path d="M37.5947 23.6404H41.2843V27.1997C41.1354 27.3834 40.9062 27.5786 40.5854 27.7508C40.276 27.9345 39.8749 28.0838 39.3822 28.2101C38.8895 28.3363 38.3166 28.3938 37.6635 28.3938C36.7927 28.3938 36.0364 28.1756 35.3718 27.7393C34.7187 27.303 34.2031 26.683 33.8479 25.8793C33.4927 25.0756 33.3094 24.1456 33.3094 23.0893V21.39C33.3094 20.3452 33.4698 19.4382 33.7906 18.6689C34.1114 17.8882 34.5927 17.2911 35.2114 16.8663C35.8302 16.4415 36.5864 16.2233 37.4687 16.2233C38.626 16.2233 39.5083 16.5104 40.1156 17.073C40.7229 17.6356 41.101 18.3819 41.2499 19.3004H42.4301C42.327 18.5082 42.0749 17.8078 41.6739 17.1878C41.2729 16.5793 40.7229 16.097 40.0124 15.7526C39.302 15.4082 38.4656 15.2359 37.4687 15.2359C36.3802 15.2359 35.4291 15.4885 34.6271 15.9937C33.825 16.4989 33.2062 17.2108 32.7708 18.1522C32.3354 19.0822 32.1292 20.173 32.1292 21.436V23.1123C32.1292 24.3752 32.3583 25.4774 32.8281 26.4304C33.2979 27.3834 33.9396 28.1182 34.776 28.6349C35.6125 29.1515 36.5635 29.4041 37.6406 29.4041C38.5229 29.4041 39.302 29.3008 39.9552 29.1056C40.6083 28.9104 41.1354 28.6693 41.5364 28.3938C41.926 28.1182 42.2239 27.8426 42.4187 27.5556V22.653H37.5718V23.6404H37.5947Z" fill="#3A3F83"/>
<path d="M53.7854 15.4196H52.9375L47.7469 29.1974H48.95L50.3709 25.3396H56.6271L58.0479 29.1974H59.2625L54.0604 15.4196H53.7854V15.4196ZM50.7375 24.3407L53.499 16.8318L56.2604 24.3407H50.7375Z" fill="#3A3F83"/>
<path d="M82.076 18.3933C81.5833 17.4404 80.8844 16.7055 79.9906 16.1889C79.0969 15.6722 78.0885 15.4081 76.9542 15.4081H74.2844H73.1271V29.1859H73.7687H76.8854C78.0541 29.1859 79.0969 28.9219 79.9906 28.4052C80.8958 27.8885 81.5948 27.1537 82.0875 26.2122C82.5802 25.2707 82.8323 24.1685 82.8323 22.9285V21.6655C82.8323 20.437 82.5802 19.3463 82.076 18.3933ZM81.675 22.94C81.675 23.9848 81.4802 24.9033 81.0906 25.6956C80.701 26.4878 80.1396 27.1078 79.4177 27.5556C78.6958 27.9919 77.8479 28.2215 76.8739 28.2215H74.2844V16.4185H76.9656C77.9052 16.4185 78.7302 16.6367 79.4406 17.0615C80.151 17.4978 80.701 18.1063 81.0906 18.8985C81.4802 19.6907 81.675 20.6093 81.675 21.6541V22.94Z" fill="#3A3F83"/>
<path d="M66.5844 7.31371C65.4729 5.36185 63.5364 4.05296 60.9927 3.52482C56.4438 2.59482 53.8542 0.734816 53.8313 0.711853L52.8688 0L52.9261 1.19407C52.9375 1.51556 53.3615 9.10482 57.8761 12.997C59.7667 14.6274 62.1042 15.3622 64.8198 15.1785C65.0375 15.7182 65.2323 16.2693 65.3927 16.8319C65.6791 17.8307 65.9083 18.8411 66.0458 19.8744C66.1718 20.9078 66.275 21.9411 66.2635 22.9859C66.275 25.0526 66.0458 27.1307 65.6448 29.1859H66.825C67.2948 27.1652 67.5468 25.0756 67.5468 22.9859V22.5726C67.5468 22.4348 67.5468 22.297 67.5354 22.1593L67.4895 21.3326C67.4781 21.1948 67.4781 21.057 67.4552 20.9193L67.4093 20.5059L67.3635 20.0926C67.3406 19.9548 67.3406 19.817 67.3062 19.6793L67.1687 18.8641L67.1343 18.6574C67.1229 18.5885 67.1 18.5196 67.0885 18.4507L66.9968 18.0489C66.9396 17.7848 66.8823 17.5093 66.802 17.2452C66.7677 17.1189 66.7333 16.9926 66.6989 16.8663C67.9823 13.02 67.9479 9.71334 66.5844 7.31371ZM65.2896 13.4219C64.7854 12.4459 64.1781 11.5159 63.5021 10.6433C63.3302 10.4252 63.1583 10.207 62.975 10.0004C62.7917 9.79371 62.6198 9.58704 62.425 9.38037C62.0583 8.97852 61.6573 8.58815 61.2333 8.23222C60.8094 7.88778 60.3625 7.5663 59.8927 7.27926C59.7667 7.21037 59.6521 7.14148 59.526 7.08408C59.4 7.02667 59.2854 6.95778 59.1594 6.90037C58.9073 6.78556 58.6437 6.69371 58.3802 6.62482L58.3688 6.64778C58.7698 7.02667 59.1479 7.39408 59.526 7.77297C59.9042 8.14037 60.2708 8.51926 60.6375 8.88667C60.7292 8.97852 60.8208 9.08185 60.9125 9.1737L61.05 9.31148L61.1875 9.46074L61.451 9.74778L61.7031 10.0463C61.875 10.2415 62.0354 10.4482 62.2073 10.6433C62.3792 10.8385 62.5166 11.0567 62.6771 11.2633C63.2844 12.1015 63.8114 13.0085 64.2698 13.9385C64.2927 13.9844 64.3041 14.0189 64.3271 14.0648C62.1042 14.1337 60.1792 13.4793 58.6208 12.1474C55.4584 9.4263 54.4729 4.50074 54.175 2.28481C55.3781 2.96222 57.6125 4.00704 60.7635 4.65C62.975 5.09778 64.6479 6.22296 65.5989 7.8763C66.6302 9.69037 66.7791 12.1359 66.0458 15.0407C65.8166 14.4896 65.5646 13.95 65.2896 13.4219Z" fill="#3A3F83"/>
</svg>
