<svg xmlns="http://www.w3.org/2000/svg" viewBox="0 0 35.3 35.3"><defs><style>.cls-1{fill:none;stroke:#515690;stroke-miterlimit:10;stroke-width:1.3px;}.cls-2{fill:#515690;}</style></defs><title>messenger</title><g id="Warstwa_2" data-name="Warstwa 2"><g id="Warstwa_1-2" data-name="Warstwa 1"><path id="Stroke-92" class="cls-1" d="M29.32,16.69c0-6-5.23-10.81-11.67-10.81S6,10.72,6,16.69a10.5,10.5,0,0,0,4.35,8.41v4.12l4-2.18a12.72,12.72,0,0,0,3.35.45c6.44,0,11.67-4.84,11.67-10.8Z"/><path id="Stroke-93" class="cls-2" d="M24.39,14.54l-5,5.28a.79.79,0,0,1-1.15,0l-2-2.18a.68.68,0,0,0-.81-.13l-4.3,2.35a.19.19,0,0,1-.23-.29l5-5.3a.8.8,0,0,1,1.15,0l2.11,2.19a.66.66,0,0,0,.81.13l4.22-2.33A.18.18,0,0,1,24.39,14.54Z"/><rect class="cls-1" x="0.65" y="0.65" width="34" height="34" rx="5" ry="5"/></g></g></svg>