<svg xmlns="http://www.w3.org/2000/svg" viewBox="0 0 35.3 35.3"><defs><style>.cls-1{fill:none;stroke:#515690;stroke-miterlimit:10;stroke-width:1.3px;}.cls-2{fill:#515690;}</style></defs><title>whatsapp</title><g id="Warstwa_2" data-name="Warstwa 2"><g id="Warstwa_1-2" data-name="Warstwa 1"><path class="cls-1" d="M29.65.65h-24a5,5,0,0,0-5,5v24a5,5,0,0,0,5,5h24a5,5,0,0,0,5-5v-24A5,5,0,0,0,29.65.65ZM28.77,19a11.21,11.21,0,0,1-17.29,8l-4.3,1.37,1.39-4.16A11.2,11.2,0,0,1,17.64,6.37h0A11.22,11.22,0,0,1,28.77,19Z"/><path class="cls-1" d="M28.77,19a11.21,11.21,0,0,1-17.29,8l-4.3,1.37,1.39-4.16A11.2,11.2,0,0,1,17.64,6.37h0A11.22,11.22,0,0,1,28.77,19Z"/><path class="cls-2" d="M23.38,21.67a2.76,2.76,0,0,1-2,1.41c-.51.12-1.2.21-3.5-.75a12.27,12.27,0,0,1-5-4.39,5.55,5.55,0,0,1-1.2-3,3.15,3.15,0,0,1,1-2.43,1.48,1.48,0,0,1,1-.36h.33c.29,0,.44,0,.63.5s.83,2,.9,2.15a.6.6,0,0,1,0,.54,1.59,1.59,0,0,1-.32.46c-.15.17-.29.3-.43.48s-.29.33-.12.62a8.73,8.73,0,0,0,1.62,2,7.55,7.55,0,0,0,2.34,1.45.64.64,0,0,0,.7-.11c.22-.24.5-.64.78-1A.57.57,0,0,1,21,19c.27.1,1.69.8,2,.95s.48.22.55.34A2.47,2.47,0,0,1,23.38,21.67Z"/></g></g></svg>