<svg xmlns="http://www.w3.org/2000/svg" viewBox="0 0 23.92 21.92">
  <title>favorite</title>
  <g id="Layer_2" data-name="Layer 2">
    <g id="Warstwa_1" data-name="Warstwa 1">
      <path
        d="M17.47,1.3a5.17,5.17,0,0,1,5,4,5.12,5.12,0,0,1-.68,3.89A81.43,81.43,0,0,1,12,20.42,81.22,81.22,0,0,1,2.1,9.22,5.17,5.17,0,0,1,3.7,2.1a5.16,5.16,0,0,1,7.11,1.58l0,0,0,0L12,5.56l1.11-1.8,0-.08A5.14,5.14,0,0,1,17.47,1.3m0-1.3A6.45,6.45,0,0,0,12,3l0,.07a.16.16,0,0,0,0-.07A6.46,6.46,0,1,0,1,9.92c1.91,3,9.92,12,11,12s9.05-9,11-12A6.46,6.46,0,0,0,17.47,0Z" />
    </g>
  </g>
</svg>